{
  "accessors": [
    {
      "bufferView": 0,
      "componentType": 5125,
      "count": 62202,
      "type": "SCALAR"
    },
    {
      "bufferView": 1,
      "componentType": 5126,
      "count": 11558,
      "max": [
        0.960851728916168,
        0.0689800009131432,
        0.317679792642593
      ],
      "min": [
        0.380299866199493,
        -0.0106738284230232,
        -0.262852132320404
      ],
      "type": "VEC3"
    },
    {
      "bufferView": 2,
      "componentType": 5126,
      "count": 11558,
      "type": "VEC3"
    },
    {
      "bufferView": 3,
      "componentType": 5126,
      "count": 11558,
      "type": "VEC2"
    },
    {
      "bufferView": 4,
      "componentType": 5125,
      "count": 354,
      "type": "SCALAR"
    },
    {
      "bufferView": 5,
      "componentType": 5126,
      "count": 168,
      "max": [
        1.70070838928223,
        -0.00761597603559494,
        0.39625084400177
      ],
      "min": [
        -0.299291551113129,
        -0.0689800158143044,
        -0.331074833869934
      ],
      "type": "VEC3"
    },
    {
      "bufferView": 6,
      "componentType": 5126,
      "count": 168,
      "type": "VEC3"
    },
    {
      "bufferView": 7,
      "componentType": 5126,
      "count": 168,
      "type": "VEC2"
    },
    {
      "bufferView": 8,
      "componentType": 5125,
      "count": 18,
      "type": "SCALAR"
    },
    {
      "bufferView": 9,
      "componentType": 5126,
      "count": 8,
      "max": [
        1.62433958053589,
        -0.00855597108602524,
        0.319881647825241
      ],
      "min": [
        -0.222922325134277,
        -0.00855597108602524,
        -0.254705667495728
      ],
      "type": "VEC3"
    },
    {
      "bufferView": 10,
      "componentType": 5126,
      "count": 8,
      "type": "VEC3"
    },
    {
      "bufferView": 11,
      "componentType": 5126,
      "count": 8,
      "type": "VEC2"
    }
  ],
  "asset": {
    "generator": "Substance Painter 2018.1.0",
    "version": "2.0"
  },
  "bufferViews": [
    {
      "buffer": 0,
      "byteLength": 248808,
      "target": 34963
    },
    {
      "buffer": 0,
      "byteLength": 138696,
      "byteOffset": 248808,
      "target": 34962
    },
    {
      "buffer": 0,
      "byteLength": 138696,
      "byteOffset": 387504,
      "target": 34962
    },
    {
      "buffer": 0,
      "byteLength": 92464,
      "byteOffset": 526200,
      "target": 34962
    },
    {
      "buffer": 0,
      "byteLength": 1416,
      "byteOffset": 618664,
      "target": 34963
    },
    {
      "buffer": 0,
      "byteLength": 2016,
      "byteOffset": 620080,
      "target": 34962
    },
    {
      "buffer": 0,
      "byteLength": 2016,
      "byteOffset": 622096,
      "target": 34962
    },
    {
      "buffer": 0,
      "byteLength": 1344,
      "byteOffset": 624112,
      "target": 34962
    },
    {
      "buffer": 0,
      "byteLength": 72,
      "byteOffset": 625456,
      "target": 34963
    },
    {
      "buffer": 0,
      "byteLength": 96,
      "byteOffset": 625528,
      "target": 34962
    },
    {
      "buffer": 0,
      "byteLength": 96,
      "byteOffset": 625624,
      "target": 34962
    },
    {
      "buffer": 0,
      "byteLength": 64,
      "byteOffset": 625720,
      "target": 34962
    }
  ],
  "buffers": [
    {
      "byteLength": 625784,
      "uri": "spawner.bin"
    }
  ],
  "images": [
    {
      "uri": "Edge_Metal_2_baseColor.png"
    },
    {
      "uri": "Edge_Metal_2_occlusionRoughnessMetallic.png"
    },
    {
      "uri": "Edge_Metal_2_normal.png"
    },
    {
      "uri": "Magical_Rock_2_baseColor.png"
    },
    {
      "uri": "Magical_Rock_2_occlusionRoughnessMetallic.png"
    },
    {
      "uri": "Magical_Rock_2_normal.png"
    },
    {
      "uri": "Magical_Rock_2_emissive.png"
    },
    {
      "uri": "Platform_Standing_2_baseColor.png"
    },
    {
      "uri": "Platform_Standing_2_occlusionRoughnessMetallic.png"
    },
    {
      "uri": "Platform_Standing_2_normal.png"
    }
  ],
  "materials": [
    {
      "alphaMode": "OPAQUE",
      "name": "Edge_Metal_2",
      "normalTexture": {
        "index": 2
      },
      "occlusionTexture": {
        "index": 1
      },
      "pbrMetallicRoughness": {
        "baseColorTexture": {
          "index": 0
        },
        "metallicRoughnessTexture": {
          "index": 1
        }
      }
    },
    {
      "alphaMode": "OPAQUE",
      "emissiveFactor": [
        1.0,
        1.0,
        1.0
      ],
      "emissiveTexture": {
        "index": 6
      },
      "name": "Magical_Rock_2",
      "normalTexture": {
        "index": 5
      },
      "occlusionTexture": {
        "index": 4
      },
      "pbrMetallicRoughness": {
        "baseColorTexture": {
          "index": 3
        },
        "metallicRoughnessTexture": {
          "index": 4
        }
      }
    },
    {
      "alphaMode": "OPAQUE",
      "name": "Platform_Standing_2",
      "normalTexture": {
        "index": 9
      },
      "occlusionTexture": {
        "index": 8
      },
      "pbrMetallicRoughness": {
        "baseColorTexture": {
          "index": 7
        },
        "metallicRoughnessTexture": {
          "index": 8
        }
      }
    }
  ],
  "meshes": [
    {
      "name": "Cylinder",
      "primitives": [
        {
          "attributes": {
            "NORMAL": 2,
            "POSITION": 1,
            "TEXCOORD_0": 3
          },
          "indices": 0,
          "material": 1,
          "mode": 4
        }
      ]
    },
    {
      "name": "Platform.001_Cube.001",
      "primitives": [
        {
          "attributes": {
            "NORMAL": 6,
            "POSITION": 5,
            "TEXCOORD_0": 7
          },
          "indices": 4,
          "material": 0,
          "mode": 4
        }
      ]
    },
    {
      "name": "Platform.001_Cube.001",
      "primitives": [
        {
          "attributes": {
            "NORMAL": 10,
            "POSITION": 9,
            "TEXCOORD_0": 11
          },
          "indices": 8,
          "material": 2,
          "mode": 4
        }
      ]
    }
  ],
  "nodes": [
    {
      "children": [
        1,
        3
      ],
      "name": "spawner.obj",
      "scale": [
        15.714937210083,
        15.714937210083,
        15.714937210083
      ],
      "translation": [
        13.8688220977783,
        1.4647935628891,
        -8.82968521118164
      ]
    },
    {
      "children": [
        2
      ],
      "name": "Cylinder"
    },
    {
      "mesh": 0,
      "name": "Cylinder"
    },
    {
      "children": [
        4,
        5
      ],
      "name": "Platform.001_Cube.001"
    },
    {
      "mesh": 1,
      "name": "Platform.001_Cube.001"
    },
    {
      "mesh": 2,
      "name": "Platform.001_Cube.001"
    }
  ],
  "samplers": [
    {
      "magFilter": 9729,
      "minFilter": 9985,
      "wrapS": 10497,
      "wrapT": 10497
    }
  ],
  "scene": 0,
  "scenes": [
    {
      "name": "Scene",
      "nodes": [
        0
      ]
    }
  ],
  "textures": [
    {
      "sampler": 0,
      "source": 0
    },
    {
      "sampler": 0,
      "source": 1
    },
    {
      "sampler": 0,
      "source": 2
    },
    {
      "sampler": 0,
      "source": 3
    },
    {
      "sampler": 0,
      "source": 4
    },
    {
      "sampler": 0,
      "source": 5
    },
    {
      "sampler": 0,
      "source": 6
    },
    {
      "sampler": 0,
      "source": 7
    },
    {
      "sampler": 0,
      "source": 8
    },
    {
      "sampler": 0,
      "source": 9
    }
  ]
}